<?xml version="1.0" standalone="no"?>
<!DOCTYPE svg PUBLIC "-//W3C//DTD SVG 20010904//EN"
 "http://www.w3.org/TR/2001/REC-SVG-20010904/DTD/svg10.dtd">
<svg version="1.0" xmlns="http://www.w3.org/2000/svg"
 width="610.000000pt" height="610.000000pt" viewBox="0 0 610.000000 610.000000"
 preserveAspectRatio="xMidYMid meet">
<metadata>
Created by potrace 1.11, written by Peter Selinger 2001-2013
</metadata>
<g transform="translate(0.000000,610.000000) scale(0.100000,-0.100000)"
fill="#000000" stroke="none">
<path d="M3218 5615 c-2 -2 -37 -6 -78 -9 -41 -3 -84 -7 -95 -10 -11 -2 -42
-7 -68 -10 -27 -4 -59 -10 -70 -12 -12 -3 -47 -9 -77 -15 -175 -34 -429 -126
-621 -225 -74 -38 -92 -48 -136 -77 -24 -15 -44 -27 -47 -27 -8 0 -104 -68
-198 -138 -84 -65 -115 -91 -228 -196 -58 -54 -159 -166 -242 -270 -10 -11
-22 -26 -27 -33 -44 -52 -182 -277 -233 -381 -35 -70 -64 -129 -65 -131 -1 -2
-124 -4 -273 -4 l-270 0 -10 -36 c-8 -31 -29 -120 -45 -186 -3 -11 -14 -56
-24 -100 -11 -44 -22 -91 -25 -105 -2 -14 -18 -81 -36 -150 -17 -69 -33 -141
-36 -160 l-5 -35 260 1 259 1 -4 -61 c-6 -106 -5 -336 1 -346 11 -18 -20 -21
-266 -23 l-243 -2 -37 -155 c-21 -85 -35 -158 -33 -162 3 -4 1 -8 -3 -8 -5 0
-9 -8 -10 -17 -1 -10 -16 -74 -33 -143 -16 -69 -32 -136 -35 -150 -3 -14 -11
-49 -18 -77 l-14 -53 36 -1 c20 0 212 0 428 0 287 -1 394 -4 401 -12 4 -7 24
-48 42 -92 19 -44 37 -82 40 -85 3 -3 17 -30 32 -60 50 -101 82 -154 162 -270
44 -63 85 -120 90 -126 6 -6 26 -29 44 -52 90 -110 157 -179 314 -318 19 -18
75 -62 124 -98 49 -36 94 -70 99 -74 66 -52 444 -252 477 -252 8 0 19 -5 26
-12 15 -15 31 -1 38 36 2 15 27 110 55 211 27 101 52 192 54 202 2 10 24 94
49 186 26 93 46 174 46 181 0 6 -32 27 -72 46 -151 74 -290 173 -424 305 -103
101 -214 233 -214 254 0 6 -4 11 -10 11 -5 0 -10 4 -10 9 0 6 143 10 361 9
198 0 363 3 366 6 5 5 36 130 46 187 3 13 10 44 17 69 7 25 14 54 16 65 2 11
11 49 19 85 39 160 46 186 49 205 2 11 8 38 14 60 5 22 13 52 16 67 l6 27
-591 0 c-325 0 -594 3 -597 6 -10 9 -9 281 1 354 l9 68 575 -1 c316 -1 579 2
585 5 8 5 37 111 54 198 3 14 7 28 9 31 2 4 7 22 10 41 3 19 12 59 20 89 8 30
17 69 20 85 8 40 13 60 15 60 1 0 3 9 5 20 2 11 6 29 8 40 24 94 45 190 42
196 -3 3 -230 6 -505 6 -275 0 -503 2 -505 5 -8 7 96 127 176 204 149 143 319
256 514 341 59 26 199 73 235 79 14 3 34 8 45 11 23 8 27 9 80 17 22 4 51 9
65 11 86 15 269 20 383 11 l47 -3 14 51 c8 28 18 65 22 81 10 41 11 45 14 48
2 2 5 15 13 52 6 25 48 185 54 205 2 8 5 17 5 20 0 3 7 27 15 54 8 27 16 58
18 68 2 10 6 22 9 26 3 5 8 24 11 43 3 19 15 64 25 100 11 36 20 71 20 76 0
17 -184 36 -382 38 -103 1 -188 1 -190 0z"/>
<path d="M4441 5357 c-5 -18 -24 -86 -41 -152 -17 -66 -43 -160 -57 -210 -14
-49 -27 -99 -29 -110 -2 -11 -23 -91 -47 -177 -49 -177 -52 -159 33 -212 203
-128 415 -343 537 -544 120 -196 210 -440 238 -647 24 -175 24 -362 0 -515
-18 -110 -69 -305 -87 -324 -4 -6 -8 -18 -8 -28 0 -18 -137 -294 -159 -320 -6
-7 -29 -38 -51 -68 -22 -30 -50 -68 -62 -85 -35 -46 -208 -216 -253 -249 -22
-16 -45 -34 -50 -40 -11 -12 -18 -16 -120 -78 -38 -23 -72 -45 -75 -48 -25
-28 -341 -149 -431 -165 -18 -3 -35 -8 -39 -10 -3 -2 -29 -7 -56 -11 -27 -3
-52 -8 -55 -10 -4 -2 -95 -9 -244 -18 -15 -1 -24 -17 -42 -81 -13 -44 -26 -91
-29 -105 -8 -38 -12 -55 -14 -55 -1 0 -3 -7 -5 -15 -1 -8 -8 -35 -15 -60 -7
-25 -14 -53 -15 -62 -2 -10 -6 -22 -9 -26 -3 -5 -7 -19 -10 -33 -2 -13 -27
-109 -55 -213 -28 -104 -49 -192 -46 -194 15 -15 559 -3 584 13 3 1 30 6 59 9
29 3 69 10 90 15 20 6 48 12 62 15 24 4 104 23 125 30 6 2 24 6 40 10 75 19
290 103 395 154 122 60 263 141 268 154 2 4 8 8 14 8 15 0 79 46 218 157 94
75 284 261 345 338 22 28 43 52 46 55 13 10 137 188 174 250 22 36 46 75 52
85 24 38 153 308 153 319 0 3 5 17 12 33 6 15 12 31 13 36 2 4 4 9 5 12 1 3 3
8 5 13 1 4 4 14 8 22 9 23 37 114 42 136 2 10 11 44 19 74 8 30 17 69 20 85
11 65 26 151 30 171 28 138 27 591 0 728 -2 12 -6 38 -9 58 -3 20 -10 59 -16
85 -6 26 -13 59 -15 73 -20 101 -114 380 -160 471 -13 26 -20 49 -17 53 4 3 1
6 -5 6 -7 0 -12 5 -12 11 0 16 -140 263 -151 267 -5 2 -9 8 -9 13 0 10 -57 94
-87 129 -13 13 -23 28 -23 32 0 3 -6 13 -12 20 -7 7 -35 40 -63 73 -86 104
-272 285 -366 357 -17 12 -43 32 -57 44 -53 41 -132 94 -142 94 -5 0 -10 4
-10 8 0 5 -15 16 -32 25 -18 10 -49 27 -68 39 -19 11 -76 42 -127 69 l-92 48
-10 -32z"/>
</g>
</svg>
